<?xml version="1.0" encoding="utf-8"?>
<!-- Generator: Adobe Illustrator 16.0.4, SVG Export Plug-In . SVG Version: 6.00 Build 0)  -->
<!DOCTYPE svg PUBLIC "-//W3C//DTD SVG 1.1//EN" "http://www.w3.org/Graphics/SVG/1.1/DTD/svg11.dtd">
<svg version="1.1" id="Layer_1" xmlns="http://www.w3.org/2000/svg" xmlns:xlink="http://www.w3.org/1999/xlink" x="0px" y="0px"
	 width="400px" height="400px" viewBox="0 0 400 400" enable-background="new 0 0 400 400" xml:space="preserve">
<path fill="#FFFFFF" d="M200,2.894c-75.892,0-137.603,61.727-137.603,137.603c0,48.501,29.382,84.375,51.496,107.12
	c36.651,37.752,77.672,126.126,77.997,138.396c0,4.469,3.626,8.094,8.094,8.094c4.355,0,7.9-3.433,8.095-7.737v-0.048
	c0-0.018,0-0.018,0-0.018l0,0v-0.017c0,0,0-0.017,0-0.031l0,0v-0.017c0-0.021,0-0.021,0-0.021l0,0v-0.047c0-0.018,0-0.018,0-0.018
	v-0.16c0-11.947,24.315-93.943,69.914-132.229c38.985-32.714,59.61-71.89,59.61-113.285C337.603,64.604,275.893,2.894,200,2.894z"/>
</svg>
